<svg xmlns="http://www.w3.org/2000/svg" viewBox="0 0 120 120" role="img" aria-labelledby="pig1Title">
  <title id="pig1Title">Happy jumping pink pig</title>
  <defs>
    <linearGradient id="pigBodyGrad" x1="0" y1="0" x2="0" y2="1">
      <stop offset="0%" stop-color="#ffb8d1"/>
      <stop offset="100%" stop-color="#f780b8"/>
    </linearGradient>
  </defs>
  <circle cx="60" cy="58" r="44" fill="url(#pigBodyGrad)"/>
  <ellipse cx="45" cy="45" rx="12" ry="10" fill="#fff" opacity="0.7"/>
  <ellipse cx="75" cy="45" rx="12" ry="10" fill="#fff" opacity="0.7"/>
  <circle cx="45" cy="46" r="4" fill="#2f2f3c"/>
  <circle cx="75" cy="46" r="4" fill="#2f2f3c"/>
  <path d="M50 62c4 4 12 4 16 0" fill="none" stroke="#2f2f3c" stroke-width="3" stroke-linecap="round"/>
  <circle cx="60" cy="58" r="8" fill="#f875ae"/>
  <path d="M30 38c-6-10-14-14-22-10" fill="none" stroke="#f780b8" stroke-width="7" stroke-linecap="round"/>
  <path d="M90 38c6-10 14-14 22-10" fill="none" stroke="#f780b8" stroke-width="7" stroke-linecap="round"/>
  <path d="M34 88c5 4 12 6 18 4" fill="none" stroke="#f780b8" stroke-width="7" stroke-linecap="round"/>
  <path d="M86 88c-5 4-12 6-18 4" fill="none" stroke="#f780b8" stroke-width="7" stroke-linecap="round"/>
  <ellipse cx="60" cy="105" rx="30" ry="7" fill="#e39db7" opacity="0.8"/>
</svg>
