<svg xmlns="http://www.w3.org/2000/svg" viewBox="0 0 360 640" fill="none">
  <g stroke="#111" stroke-width="2.3" stroke-linecap="round" stroke-linejoin="round">
    <!-- background stars -->
    <polygon points="42,70 44,76 50,76 45,80 47,86 42,82 37,86 39,80 34,76 40,76"/>
    <polygon points="318,55 320,61 326,61 321,65 323,71 318,67 313,71 315,65 310,61 316,61"/>
    <polygon points="300,560 302,566 308,566 303,570 305,576 300,572 295,576 297,570 292,566 298,566"/>
    <polygon points="55,420 56,424 60,424 57,426 58,430 55,428 52,430 53,426 50,424 54,424"/>
    <path d="M75 130 L77 138 M73 134 L81 134"/>
    <path d="M285 180 L287 188 M283 184 L291 184"/>
    <polygon points="325,350 327,356 333,356 328,360 330,366 325,362 320,366 322,360 317,356 323,356"/>
    <!-- left twin tail -->
    <path d="M122 168 C100 200 92 260 96 320 C100 380 110 440 120 500 C125 530 128 555 130 580"/>
    <path d="M122 168 C132 190 138 230 140 280"/>
    <!-- right twin tail -->
    <path d="M238 168 C260 200 268 260 264 320 C260 380 250 440 240 500 C235 530 232 555 230 580"/>
    <path d="M238 168 C228 190 222 230 220 280"/>
    <!-- left boot -->
    <path d="M152 488 L148 545 C147 558 160 565 172 560 L176 552"/>
    <path d="M152 488 L160 485 L162 545"/>
    <!-- right boot (forward) -->
    <path d="M208 488 L218 545 C220 558 208 565 196 560 L192 552"/>
    <path d="M208 488 L200 485 L198 545"/>
    <!-- legs -->
    <path d="M168 430 L162 488"/>
    <path d="M198 430 L208 488"/>
    <!-- skirt ruffle layers -->
    <path d="M136 395 C165 425 195 425 224 395 L230 372 L130 372 Z"/>
    <path d="M130 372 L126 392 C155 415 205 415 234 392 L230 372"/>
    <path d="M138 372 C165 388 195 388 222 372"/>
    <path d="M142 372 C168 382 192 382 218 372"/>
    <!-- bodice -->
    <path d="M150 318 L210 318 L224 372 L136 372 Z"/>
    <path d="M150 318 C158 300 202 300 210 318"/>
    <!-- puffy sleeves -->
    <path d="M150 325 C128 328 108 348 94 372"/>
    <path d="M150 318 C138 312 128 318 124 332 C122 342 130 350 142 346"/>
    <path d="M210 325 C232 318 252 300 272 278 L300 248"/>
    <path d="M210 318 C224 312 236 318 242 332"/>
    <!-- belt -->
    <path d="M140 352 L220 352"/>
    <rect x="168" y="346" width="18" height="12" rx="2"/>
    <!-- head -->
    <circle cx="180" cy="218" r="56"/>
    <!-- bangs -->
    <path d="M130 212 C145 182 215 182 230 212"/>
    <!-- star clips -->
    <circle cx="120" cy="172" r="14"/>
    <circle cx="240" cy="172" r="14"/>
    <!-- eyes -->
    <ellipse cx="164" cy="222" rx="15" ry="19"/>
    <ellipse cx="196" cy="222" rx="15" ry="19"/>
    <!-- mouth -->
    <path d="M170 254 Q180 262 190 254"/>
    <!-- wand -->
    <path d="M300 248 L312 228"/>
  </g>
  <g fill="#111" stroke="none">
    <circle cx="167" cy="225" r="5"/>
    <circle cx="193" cy="225" r="5"/>
    <circle cx="170" cy="219" r="2.5" fill="#fff"/>
    <circle cx="199" cy="219" r="2.5" fill="#fff"/>
    <polygon points="120,172 123,179 130,179 124,183 126,190 120,186 114,190 116,183 110,179 117,179"/>
    <polygon points="240,172 243,179 250,179 244,183 246,190 240,186 234,190 236,183 230,179 237,179"/>
    <polygon points="180,338 183,345 190,345 184,348 186,355 180,351 174,355 176,348 170,345 177,345"/>
    <polygon points="312,228 315,235 322,235 316,238 318,245 312,241 306,245 308,238 302,235 309,235"/>
    <polygon points="160,552 162,557 167,557 163,559 164,564 160,561 156,564 157,559 153,557 158,557"/>
    <polygon points="200,552 202,557 207,557 203,559 204,564 200,561 196,564 197,559 193,557 198,557"/>
  </g>
</svg>
